<svg xmlns="http://www.w3.org/2000/svg" viewBox="0 0 140.88 176.41"><defs><style>.cls-1{isolation:isolate;}.cls-2{opacity:0.64;mix-blend-mode:overlay;}.cls-3,.cls-4{fill:#e1ecc7;}.cls-3{opacity:0.3;}.cls-4{opacity:0.8;}.cls-5{fill:#111b2f;}.cls-6{fill:#f8b175;}.cls-7{fill:#fff;}.cls-11,.cls-8{fill:#10253a;}.cls-8{opacity:0.2;}.cls-9{fill:#f28d5b;}.cls-10{fill:#cdd1d7;}.cls-11{opacity:0.1;}.cls-12{fill:#e94733;}.cls-13,.cls-14{fill:none;stroke-linecap:round;stroke-linejoin:round;stroke-width:3px;}.cls-13{stroke:#d8381f;}.cls-14{stroke:#10253a;}</style></defs><title>chef</title><g class="cls-1"><g id="Capa_1" data-name="Capa 1"><g class="cls-2"><path class="cls-3" d="M70.23,43.3A32.73,32.73,0,1,1,37.5,10.58,32.73,32.73,0,0,1,70.23,43.3Z"/><path class="cls-3" d="M62.17,43.3A24.67,24.67,0,1,1,37.5,18.64,24.67,24.67,0,0,1,62.17,43.3Z"/><path class="cls-4" d="M53.55,43.3a16,16,0,1,1-16-16A16.06,16.06,0,0,1,53.55,43.3Z"/></g><path class="cls-5" d="M39.52,77.6c-1.26-.4-6.25,2.15-9.83,6s-5.1,6.75-4.56,7.09c.86.55,8.8,1.21,12.33-3.65A11.3,11.3,0,0,0,39.52,77.6Z"/><path class="cls-6" d="M37.67,84.6l-3.46-8.66s4.62-3.68,4.89-8.66-6.83-6.89-8-2.93c-.66,2.17,3.7.4,3.43,3.3s-2.38,2.17-2.38,2.17-4.48-3.22-4.48-7.31-4.62-3.89-5-2.08a7.7,7.7,0,0,0,0,3.31s-2.24-1.4-3.43,0,0,5.2,0,5.2-2.11-2.15-2.77,0,2,6.49,2,6.49a3,3,0,0,0-.8,3.46c.8,2.23,4.36,4.92,5.94,1,0,0,5.95,9.09,7.27,11.43S40,89.47,37.67,84.6Z"/><path class="cls-5" d="M36.28,53.67l-13,35.74a1.35,1.35,0,0,1-1.77.8h0a1.36,1.36,0,0,1-.78-1.71L33.36,52.7a1.33,1.33,0,0,0-.09-1.12c-.83-1.47-3-5.92-1.8-10.63A7.06,7.06,0,0,1,42.55,36.9c3.38,2.46,4.07,11.55-5.54,16A1.38,1.38,0,0,0,36.28,53.67Z"/><path class="cls-7" d="M55,108.18S49,101.71,46.51,97s-7-19.36-7-19.36-.53,6.48-5.94,10-8.45,3.17-8.45,3.17,7.92,11.66,13.07,16.21,18.22,11.81,18.22,11.81S60.75,115.25,55,108.18Z"/><path class="cls-8" d="M59.37,112.13c-.28-2-2.9-3.2-4.51-5.33a10,10,0,0,0,.23,1.55l-.13-.17s-1.36-1.49-3.06-3.56c.1,2.79-.48,5.4-3.15,6.51a22.35,22.35,0,0,1-3.28,1.05c3.49,2.26,7.12,4.38,9.19,5.57l-.41.58C57,116.79,59.61,115,59.37,112.13Z"/><path class="cls-6" d="M26.18,59.59s5.24,4,3.69,7c-1.8,3.47-3.57.45-5.29-2.11S23.2,59.77,26.18,59.59Z"/><path class="cls-6" d="M34.6,62.25a3.2,3.2,0,0,0-2.85,1c-1.4,1.42-1,3.55,2.39,3.35s4.06-1.3,4.06-1.3Z"/><path class="cls-9" d="M22.85,77.93c-1.54,0-3.61-1.53-4.13-2a.45.45,0,1,1,.59-.67c.85.75,2.91,2,3.82,1.74a.56.56,0,0,0,.38-.45c.27-1.06-1.3-3.34-2.74-5q-.42-.43-.87-1a.45.45,0,0,1,0-.62.44.44,0,0,1,.63,0c.11.12.44.47.87,1,2.07,2.17,3,2.24,3.4,2.15s.66-.55.83-1.34c.61-2.94-3.25-5.32-3.28-5.34a.45.45,0,0,1-.15-.62.44.44,0,0,1,.61-.15c.18.11,4.44,2.74,3.69,6.3-.24,1.15-.73,1.83-1.48,2a2.3,2.3,0,0,1-1.58-.26,4.55,4.55,0,0,1,.89,3.08,1.41,1.41,0,0,1-1,1.08A1.61,1.61,0,0,1,22.85,77.93Z"/><path class="cls-9" d="M23.1,80.34a.39.39,0,0,1-.23-.07.44.44,0,0,1-.16-.61,2,2,0,0,0,.05-2,.43.43,0,0,1,.16-.61.44.44,0,0,1,.61.15,3,3,0,0,1-.05,2.9A.44.44,0,0,1,23.1,80.34Z"/><path class="cls-9" d="M27.06,68.37a.46.46,0,0,1-.34-.15,22.35,22.35,0,0,1-3-4.9.44.44,0,0,1,.22-.59.43.43,0,0,1,.59.22,21.24,21.24,0,0,0,2.83,4.68.47.47,0,0,1,0,.64A.47.47,0,0,1,27.06,68.37Z"/><path class="cls-9" d="M28.06,83.19a10,10,0,0,1-1.19-.08.46.46,0,0,1-.39-.51.45.45,0,0,1,.51-.38,5.31,5.31,0,0,0,6.26-4,.45.45,0,0,1,.88.18A6.26,6.26,0,0,1,28.06,83.19Z"/><path class="cls-10" d="M42,105.15h-.5a.45.45,0,1,1,0-.9,4,4,0,0,0,3.07-.78,1.93,1.93,0,0,0,.61-1.23.45.45,0,1,1,.89,0,2.8,2.8,0,0,1-.88,1.88A4.57,4.57,0,0,1,42,105.15Z"/><path class="cls-7" d="M56.51,38.3s-6.2,8.44,3.21,16.84,12.21-7.7,12.21-7.7Z"/><path class="cls-6" d="M97.24,113a38.46,38.46,0,0,0,6.4-1,91.83,91.83,0,0,1,2-21.2,159.75,159.75,0,0,1,9.85-29.77L70.39,47S61,64,58.69,82.39a159,159,0,0,0-1.31,26.78,9.06,9.06,0,0,0,.88.29C70.81,113.94,84.25,113.94,97.24,113Z"/><path class="cls-7" d="M97.24,113c-13,.9-26.43.9-39-3.58a9.06,9.06,0,0,1-.88-.29c.08,1.56.17,2.38.17,2.38-5.81,31.33,5.1,52.28,5.1,52.28H113a160.67,160.67,0,0,1-9.35-51.74A38.46,38.46,0,0,1,97.24,113Z"/><path class="cls-8" d="M97.08,119.35c-.73-.21-20.27,3.61-20.27,3.61l-.87-6.08S94.07,118.27,97.08,119.35Z"/><path class="cls-8" d="M73.1,117.19c0-.1,0-.2.05-.3.57-3.89-1.11-3.5-1.11-3.5-1.59-.7-5.23-.69-6.22,2.41-2.19.11-6.74.75-9.78,4-.17.18-.34.35-.5.54.52,2.58.3,5,.31,8a38.09,38.09,0,0,0,3.92-1.15,23.78,23.78,0,0,0,7.33-5.82,5.55,5.55,0,0,0,1.25.37,1.08,1.08,0,0,0,.19,0,24.43,24.43,0,0,0,1.88,9.2,43.19,43.19,0,0,0,5.74,8.37.76.76,0,0,0,1.33-.33,45.51,45.51,0,0,0,1.1-11.43C78.34,122.48,74.68,118.62,73.1,117.19Z"/><path class="cls-8" d="M104.37,125.22a9.29,9.29,0,0,1-4.11-3.63l.82,13.51,4.2-2.34Z"/><path class="cls-8" d="M103.09,153.15l1.15,10.76H113s-3.13-9.21-3.85-12.25C109.14,151.66,104.58,150.16,103.09,153.15Z"/><path class="cls-5" d="M115.45,61.12s-15.09,2.28-17.73,6.77-3.64,11,3.3,12.46c0,0-5.15,2.89-4.36,5.71s6.31.79,11.14-3.67Z"/><path class="cls-5" d="M68,51.78s-9.09-3.15-11.6,1.07,4.89,8.85,13.07,4c0,0,.92,4.62,7.66,2.91,0,0,1.79,6,10.82.79Z"/><path class="cls-5" d="M73.77,85.91a.85.85,0,0,0,.32,0,7.71,7.71,0,0,1,7.45,3.43c2.58,4.06,3.14,7.13,7.28,7a7.1,7.1,0,0,0,2.42-.43,1,1,0,0,1,1.36,1.28c-.93,3.12-3.39,7.37-9.94,7.65-10.41.45-15.33-7.81-15.22-13.64C67.54,85.91,72.78,85.87,73.77,85.91Z"/><path class="cls-5" d="M65.07,85.42a.57.57,0,0,1-.22-.07,5,5,0,0,0-5.55,2c-2.31,3-3.12,5.46-5.92,4.89a4.23,4.23,0,0,1-1.6-.63c-.5-.34-1.16.19-1.1.88.2,2.66,1.3,6.42,5.72,7.4,7,1.56,11.53-4.61,12.25-9.38C69.31,86.14,65.75,85.5,65.07,85.42Z"/><path class="cls-5" d="M90.77,77.23a.64.64,0,0,0,.63,0c.74-.43,2.52-1.6,2.86-3.1.43-1.9-3.37-1.42-6.6-4.87a20.72,20.72,0,0,1-2.46-3,.65.65,0,0,0-1.1,0c-.88,1.38-2.09,3.88-.77,5.66C85,74.12,89.53,76.59,90.77,77.23Z"/><path class="cls-5" d="M85,81.32A4.45,4.45,0,0,1,83.4,81a3,3,0,0,1-1.8-1.64,5.11,5.11,0,0,1,.14-3.5.68.68,0,0,1,.89-.35.66.66,0,0,1,.35.88,3.75,3.75,0,0,0-.14,2.44,1.72,1.72,0,0,0,1,.92,3.6,3.6,0,0,0,3.62-.84.67.67,0,0,1,1,0,.68.68,0,0,1,0,.95A5.18,5.18,0,0,1,85,81.32Z"/><path class="cls-6" d="M102,86.44s3.8-6.08,8.16-3.8,4.16,12.1-.93,14.83-7.52-.68-8.31-3.44S102,86.44,102,86.44Z"/><path class="cls-5" d="M94.86,140.83s-1.13,3.42,3.8,8.28,8.58,5.33,9,4.65.52-6.52-4-10.18S95.77,139.79,94.86,140.83Z"/><path class="cls-6" d="M97.77,141.14s-5.25,6.11-6.39,10.51c-2,7.66,2.26,5.93,2.26,5.93s1.47,4,4.13,2.82c.8-.36.93-2.18.93-2.18a3.13,3.13,0,0,0,3.16,1.56c2.25-.26,3.56-1.74,2.58-4.25-.87-2.21-2.45-1.34-2.45-1.34a6,6,0,0,0,4.22-3.25C107.31,148.24,106.08,140.36,97.77,141.14Z"/><path class="cls-10" d="M86.36,163.92a.68.68,0,0,1-.68-.48,64.06,64.06,0,0,1,1.51-39.61c-7.11-2.1-9-3.86-9.12-3.94a.68.68,0,0,1,0-1,.69.69,0,0,1,.95,0s2,1.78,9.29,3.83a.67.67,0,0,1,.42.37.65.65,0,0,1,0,.56A62.23,62.23,0,0,0,87,163.06a.66.66,0,0,1-.45.83Z"/><path class="cls-9" d="M74.49,88.36S80,71.2,76.73,68.43s-10.3,12.41-10.3,12.41-4.35-1.72-5.8,2.24C59,87.65,69.6,96.81,74.49,88.36Z"/><path class="cls-11" d="M77.07,68.81c-1.53,5.42-2.13,11-5.41,15.43C69,87.68,65,88,61.27,86.81c2.41,4.2,9.49,8,13.22,1.55C74.49,88.36,79.61,72.5,77.07,68.81Z"/><path class="cls-7" d="M115.87,61.11s4.09,5,14.22,1.4c8.37-3,7.33-16.52-.66-21.76-10.35-6.81-21.09,0-21.09,0s2.18-19-18.37-23c-16.26-3.12-22.29,8.67-21.81,16.89,0,0-7.32-1.6-11.65,3.66C48.91,47.54,67,51.48,67,51.48s11.86,5.6,20.57,9c7.24,2.82,20.35,6.52,24.57,7.69a1.47,1.47,0,0,0,1.79-1Z"/><path class="cls-7" d="M103.33,114.75s3.11-1.06,3.39,1.76c0,0,7.81,5,11.44,6.63s9.89,4.34,9.89,7.65-10.73,9.59-13.93,13.91-6.42,9.06-6.42,9.06-1.56-11.5-12.84-12.93a83.46,83.46,0,0,1,9.22-7.27c5-3.36,7.38-4.62,7.38-4.62l-7.44-4.5S99.8,118.38,103.33,114.75Z"/><path class="cls-12" d="M97.08,110.5c-5.32,1.19-14.62,2.17-27.35-.61-.55-.12-1.76.08-2.29-.1-5-1.67-8.82-6.4-8.82-6.4a2.68,2.68,0,0,1-1.35-2.33v-.55s-4.36,3.43-1.43,10,14.41,6.38,14.41,6.38S88,122,98.64,119c7.26-2,10.3-8.18,5.06-12.27l0,.72C103.66,108.22,100.48,109.74,97.08,110.5Z"/><path class="cls-12" d="M72.24,108.16c-2.11-.66-7,0-6.86,4.89s2.45,4.82,3.73,5,4.71-2.13,4.84-6C74.1,107.5,72.24,108.16,72.24,108.16Z"/><path class="cls-5" d="M76.34,133.91c.29-2.1.52-5-.26-5s-1.63,3.75-1.53,5.95C74.61,136.21,75.9,137,76.34,133.91Z"/><path class="cls-5" d="M75.29,136.73h-.06c-.73,0-1.3-.79-1.35-1.8-.09-2,.56-5.35,1.43-6.28a1,1,0,0,1,.75-.37.94.94,0,0,1,.75.33c.23.25.82.92.19,5.41h0C76.69,136.24,75.91,136.73,75.29,136.73Zm.64-6.45a13.9,13.9,0,0,0-.71,4.58,1.13,1.13,0,0,0,.08.37,4.82,4.82,0,0,0,.37-1.41A20.25,20.25,0,0,0,75.93,130.28Z"/><path class="cls-12" d="M69.36,115.9a.84.84,0,0,0-.21.66c.14,1.54.87,7.46,3.49,11.67A48.74,48.74,0,0,0,80.23,137a.86.86,0,0,0,1.46-.54,51.78,51.78,0,0,0-.21-13.12c-1-5.92-6-9.91-7.79-11.18a.87.87,0,0,0-1.16.14Z"/><path class="cls-12" d="M68.13,116.53a.82.82,0,0,1-.12.68c-.81,1.25-4,5.78-7.94,8.11a45.63,45.63,0,0,1-10,3.91.87.87,0,0,1-1-1.16,48.05,48.05,0,0,1,5.82-10.63c3.35-4.44,9.16-5.58,11.25-5.85a.88.88,0,0,1,1,.66Z"/><path class="cls-9" d="M102.39,157.32A.44.44,0,0,1,102,157l-1.07-2.68a.48.48,0,0,1,0-.42.44.44,0,0,1,.37-.19H102a.45.45,0,1,1,0,.89h0l.82,2.07a.45.45,0,0,1-.25.58A.51.51,0,0,1,102.39,157.32Z"/><path class="cls-9" d="M98.7,158.66a.46.46,0,0,1-.38-.21,10,10,0,0,1-1.15-6.12.45.45,0,0,1,.89.12,9.07,9.07,0,0,0,1,5.53.45.45,0,0,1-.15.62A.48.48,0,0,1,98.7,158.66Z"/><path class="cls-9" d="M93.64,158a.45.45,0,0,1-.4-.25c0-.08-1-2,0-5.5a.45.45,0,1,1,.87.23c-.86,3.16,0,4.86,0,4.87a.45.45,0,0,1-.2.6A.35.35,0,0,1,93.64,158Z"/><path class="cls-10" d="M115.42,61.11a.46.46,0,0,1-.25-.08A12.57,12.57,0,0,1,111,55.3a.45.45,0,0,1,.84-.32,11.88,11.88,0,0,0,3.79,5.31.44.44,0,0,1,.12.62A.45.45,0,0,1,115.42,61.11Z"/><path class="cls-10" d="M89.15,54.86A19,19,0,0,1,83.52,54C66,48.61,67.7,34.72,67.71,34.58a.46.46,0,0,1,.51-.38.44.44,0,0,1,.38.5C68.53,35.24,67,48,83.78,53.18c8.25,2.55,16.61-2,16.69-2.09a.45.45,0,1,1,.44.78A26.45,26.45,0,0,1,89.15,54.86Z"/><path class="cls-10" d="M114.15,65.44h-.1c-.64-.15-1.16-.31-1.66-.47s-.91-.28-1.47-.42a.45.45,0,1,1,.23-.86c.57.14,1,.29,1.5.43s1,.3,1.61.45a.45.45,0,0,1-.11.88Z"/><path class="cls-10" d="M108.81,64.09h-.11l-2.14-.63-1.74-.51a.43.43,0,0,1-.31-.54.44.44,0,0,1,.54-.32l1.77.52c.85.25,1.72.51,2.11.61a.44.44,0,0,1,.32.54A.45.45,0,0,1,108.81,64.09Z"/><path class="cls-10" d="M110.21,68.09h-.13c-.17,0-16.83-5.09-25.25-8.2C78.22,57.44,71,54,68.13,52.57a4.25,4.25,0,0,1-2.22-2.73,4.15,4.15,0,0,1,.61-3.39l.07-.1a.46.46,0,0,1,.63-.1.45.45,0,0,1,.1.62l-.06.09a3.24,3.24,0,0,0-.48,2.65,3.31,3.31,0,0,0,1.75,2.15c2.8,1.38,10,4.86,16.61,7.28,8.39,3.1,25,8.13,25.2,8.18a.44.44,0,0,1-.13.87Z"/><path class="cls-10" d="M95.72,140.5a.47.47,0,0,1-.33-.14.47.47,0,0,1,0-.64,74.82,74.82,0,0,1,8.42-6.53.44.44,0,0,1,.62.13.46.46,0,0,1-.14.62A73.85,73.85,0,0,0,96,140.38.47.47,0,0,1,95.72,140.5Z"/><path class="cls-10" d="M102.16,126a4.84,4.84,0,0,1-.9-.08.45.45,0,0,1-.37-.52.43.43,0,0,1,.51-.36,3.38,3.38,0,0,0,1.87-.14,4.2,4.2,0,0,1-3-3.27.44.44,0,0,1,.34-.53.45.45,0,0,1,.53.35,3.53,3.53,0,0,0,3.21,2.76.45.45,0,0,1,.38.25.45.45,0,0,1,0,.45A3,3,0,0,1,102.16,126Z"/><path class="cls-10" d="M117,129.39a.46.46,0,0,1-.22-.06,5.4,5.4,0,0,0-5,0,.45.45,0,0,1-.61-.16.46.46,0,0,1,.16-.62,6.26,6.26,0,0,1,5.94,0,.44.44,0,0,1,.17.61A.43.43,0,0,1,117,129.39Z"/><path class="cls-5" d="M62.24,132.29c.3-2.1.52-5-.26-5s-1.63,3.75-1.52,6C60.52,134.58,61.81,135.38,62.24,132.29Z"/><path class="cls-5" d="M61.19,135.1h-.06c-.73,0-1.3-.79-1.34-1.8-.1-2,.55-5.35,1.42-6.28a1.09,1.09,0,0,1,.75-.38,1,1,0,0,1,.76.34c.22.25.82.92.19,5.4h0C62.59,134.61,61.81,135.1,61.19,135.1Zm.64-6.44a14.16,14.16,0,0,0-.7,4.57,1.43,1.43,0,0,0,.07.37,4.43,4.43,0,0,0,.38-1.4A21,21,0,0,0,61.83,128.66Z"/><path class="cls-5" d="M63,151.26c0-2.12-.31-5-1.07-4.86s-1,4-.53,6.12C61.69,153.81,63.09,154.38,63,151.26Z"/><path class="cls-5" d="M62.25,154.22c-.68,0-1.3-.63-1.5-1.56-.42-1.95-.32-5.37.38-6.43a1,1,0,0,1,.68-.49,1,1,0,0,1,.8.21c.26.21,1,.77,1.07,5.3h0c.06,2.32-.68,2.89-1.3,3ZM62,147.75a13.92,13.92,0,0,0,.06,4.63,1.17,1.17,0,0,0,.13.35,4.44,4.44,0,0,0,.14-1.45h0A19.82,19.82,0,0,0,62,147.75Z"/><path class="cls-5" d="M75.77,151c0-2.12-.3-5-1.07-4.86s-1,4-.53,6.12C74.45,153.55,75.85,154.12,75.77,151Z"/><path class="cls-5" d="M75,154c-.68,0-1.3-.63-1.5-1.56-.42-2-.32-5.37.38-6.43a1,1,0,0,1,.68-.49.94.94,0,0,1,.8.21c.26.21,1,.77,1.07,5.3h0c.06,2.32-.67,2.89-1.3,3Zm-.24-6.47a13.92,13.92,0,0,0,.06,4.63,1.17,1.17,0,0,0,.13.35A4.44,4.44,0,0,0,75.1,151h0A19.82,19.82,0,0,0,74.77,147.49Z"/><path class="cls-5" d="M60.58,70.07a.66.66,0,0,1-.56-.28c-.48-.71-1.59-2.54-1.24-4,.43-1.9,3.65.18,8-1.54a20.66,20.66,0,0,0,3.52-1.66.64.64,0,0,1,1,.47c.2,1.62.22,4.39-1.74,5.43C67.14,69.76,62,70,60.58,70.07Z"/><path class="cls-5" d="M64.4,76.42a3.33,3.33,0,0,1-.75-.09,3,3,0,0,1-2-1.34,3.86,3.86,0,0,1-.29-2.76.68.68,0,0,1,1.3.37,2.46,2.46,0,0,0,.15,1.7,1.65,1.65,0,0,0,1.15.72c2.13.46,3-2.45,3-2.48a.66.66,0,0,1,.83-.46.67.67,0,0,1,.46.82C67.84,74.2,66.61,76.42,64.4,76.42Z"/><path class="cls-9" d="M105,94.26a.48.48,0,0,1-.3-.11,4.26,4.26,0,0,1-.78-2.93,6.24,6.24,0,0,1,1.84-4.72,3.57,3.57,0,0,1,4.79.26.47.47,0,0,1,0,.64.44.44,0,0,1-.63,0h0a2.73,2.73,0,0,0-3.6-.22,5.59,5.59,0,0,0-1.52,4,3.69,3.69,0,0,0,.48,2.24.46.46,0,0,1,0,.64A.46.46,0,0,1,105,94.26Z"/><path class="cls-9" d="M107,95h-.14a.44.44,0,0,1-.38-.5.46.46,0,0,1,.5-.39,1.58,1.58,0,0,0,1.11-.64,1.74,1.74,0,0,0,.09-1.83c-.76-1.75-3.41-.88-3.43-.87a.46.46,0,0,1-.57-.29.44.44,0,0,1,.28-.56c1.2-.4,3.68-.63,4.54,1.37a2.63,2.63,0,0,1-.2,2.71A2.46,2.46,0,0,1,107,95Z"/><path class="cls-9" d="M68,105.85a7.13,7.13,0,0,1-5.2-2.12.47.47,0,0,1,0-.64.46.46,0,0,1,.64,0c3.11,3.14,7.24,1.42,7.42,1.34a.45.45,0,0,1,.35.82A9.06,9.06,0,0,1,68,105.85Z"/><path class="cls-13" d="M72.71,115.65s4,3.62,5.07,11.67"/><path class="cls-13" d="M73.69,111.33a9.32,9.32,0,0,1-3.61,6"/><path class="cls-13" d="M66,110.22a2.9,2.9,0,0,0-.67,1.78s-2.36-.62-5.59,1.5"/><path class="cls-13" d="M66.34,116.44a14,14,0,0,1-1-4.44"/><path class="cls-13" d="M56.64,122.33a22.56,22.56,0,0,1,8.73-8.11"/><path class="cls-13" d="M78.94,117.36s-2.45-3.65-5.25-4.44"/><path class="cls-13" d="M103.8,110.88s-3.15,5.21-19.38,4.92"/><path class="cls-13" d="M56.49,104.29s-.65,3.52,4.71,6.13"/><path class="cls-14" d="M33.37,45.12c.11,2.07,1.49,4.6,3.81,4.63A4,4,0,0,0,41,46.88"/><path class="cls-14" d="M34.23,41.23a7.21,7.21,0,0,0-.74,1.5"/><path class="cls-8" d="M129.43,40.75a18,18,0,0,0-8.05-2.92,13.32,13.32,0,0,1,.73,5.58c-.66,6.31-5.31,10.29-10.62,12.28,2,5.65-4,8.63-7.63,12a6.33,6.33,0,0,0-2.33,3.66,68.53,68.53,0,0,0-.66,11.61,3.9,3.9,0,0,1,3.93.78l.2.1c3.32,2.27,4.25,7.25,1.15,10.18-1.56,1.48-4.42,2.71-6.54,2.06a1.11,1.11,0,0,0-.07.16c-1.4,4.21-1.62,9.36-1.25,14.26h0a3.75,3.75,0,0,1,1.08.46,2.67,2.67,0,0,1,1.28,1.29,1.31,1.31,0,0,1,.09.28,4.36,4.36,0,0,1,.28.79,1.11,1.11,0,0,1,.54.18,2.54,2.54,0,0,1,1.18,3.3,3.06,3.06,0,0,1-.38.6c1.89.94,3.8,2.68,5.67,3.7,11.42,6.27,20,7.79,13.87,16.62,3.24-2.63,6.14-5.15,6.14-6.88,0-3.31-6.27-6-9.89-7.65s-11.44-6.63-11.44-6.63a1.88,1.88,0,0,0-1.43-1.87c1.7-2.54,1.43-5.57-1.58-7.93.09-3,.3-5.8.62-8.47a6,6,0,0,0,4.87-.77c5.09-2.73,5.29-12.54.93-14.83a4.26,4.26,0,0,0-2.24-.5l5-14a1.49,1.49,0,0,0,1-1l.64-2a.52.52,0,0,0,.07-.15.34.34,0,0,0,0-.1l1.27-3.89s4.09,5,14.22,1.4C138.46,59.53,137.42,46,129.43,40.75Z"/><path class="cls-7" d="M41.13,29.6c-.57-1.76-.33-1.52-2.09-2.09-.39-.12-.39-.43,0-.55,1.76-.57,1.52-.34,2.09-2.09.12-.39.43-.39.55,0,.57,1.75.34,1.52,2.1,2.09.38.12.38.43,0,.55-1.76.57-1.53.33-2.1,2.09C41.56,30,41.25,30,41.13,29.6Z"/><path class="cls-7" d="M17.57,31.86c-.56-1.76-.33-1.52-2.09-2.09-.39-.12-.39-.43,0-.55,1.76-.57,1.53-.34,2.09-2.09.13-.39.43-.39.56,0,.56,1.75.33,1.52,2.09,2.09.39.12.39.43,0,.55-1.76.57-1.53.33-2.09,2.09C18,32.25,17.7,32.25,17.57,31.86Z"/><path class="cls-7" d="M45.88,67.93c-.57-1.76-.34-1.52-2.09-2.09-.39-.12-.39-.43,0-.55,1.75-.57,1.52-.34,2.09-2.09.12-.39.43-.39.55,0,.57,1.75.33,1.52,2.09,2.09.39.12.39.43,0,.55-1.76.57-1.52.33-2.09,2.09C46.31,68.32,46,68.32,45.88,67.93Z"/><path class="cls-7" d="M22.33,51.63c-.57-1.76-.33-1.53-2.09-2.1-.39-.12-.39-.43,0-.55,1.76-.57,1.52-.33,2.09-2.09.13-.39.43-.39.55,0,.57,1.76.34,1.52,2.1,2.09.38.12.38.43,0,.55-1.76.57-1.53.34-2.1,2.1C22.76,52,22.46,52,22.33,51.63Z"/><path class="cls-7" d="M46.93,57.15c-.39-1.24-.23-1.07-1.47-1.47-.27-.09-.27-.3,0-.39,1.24-.4,1.08-.24,1.47-1.47.09-.28.31-.28.4,0,.39,1.23.23,1.07,1.47,1.47.27.09.27.3,0,.39-1.24.4-1.08.23-1.47,1.47C47.24,57.42,47,57.42,46.93,57.15Z"/><path class="cls-7" d="M29.84,21.66c-.4-1.24-.24-1.07-1.47-1.47-.28-.09-.28-.3,0-.39,1.23-.4,1.07-.23,1.47-1.47.08-.28.3-.28.39,0,.39,1.24.23,1.07,1.47,1.47.27.09.27.3,0,.39-1.24.4-1.08.23-1.47,1.47C30.14,21.93,29.92,21.93,29.84,21.66Z"/><path class="cls-7" d="M49.17,34.35c-.32-1-.19-.88-1.21-1.21-.22-.07-.22-.24,0-.32,1-.32.89-.19,1.21-1.21.08-.22.25-.22.32,0,.33,1,.2.89,1.21,1.21.23.08.23.25,0,.32-1,.33-.88.2-1.21,1.21C49.42,34.58,49.25,34.58,49.17,34.35Z"/><path class="cls-7" d="M17.69,45.36c-.33-1-.19-.88-1.21-1.21-.23-.07-.23-.25,0-.32,1-.33.88-.19,1.21-1.21.07-.23.25-.23.32,0,.33,1,.19.88,1.21,1.21.23.07.23.25,0,.32-1,.33-.88.19-1.21,1.21C17.94,45.59,17.76,45.59,17.69,45.36Z"/><path class="cls-7" d="M30.19,34.58c-.3-.94-.18-.82-1.12-1.12-.2-.06-.2-.23,0-.29.94-.3.82-.18,1.12-1.12.06-.2.23-.2.29,0,.3.94.18.82,1.12,1.12.2.06.2.23,0,.29-.94.3-.82.18-1.12,1.12C30.42,34.78,30.25,34.78,30.19,34.58Z"/><path class="cls-7" d="M54.68,23.59c-.3-.93-.18-.81-1.12-1.11-.2-.07-.2-.23,0-.29.94-.31.82-.18,1.12-1.12.07-.21.23-.21.29,0,.31.94.18.81,1.12,1.12.21.06.21.22,0,.29-.94.3-.81.18-1.12,1.11C54.91,23.8,54.75,23.8,54.68,23.59Z"/></g></g></svg>